<svg xmlns="http://www.w3.org/2000/svg" width="35.991" height="49.997" viewBox="0 0 35.991 49.997">
  <path id="icono_impuestos" d="M803.237,1283a.759.759,0,0,1-.548-.256l-2.746-3.1-2.86,3.106a.783.783,0,0,1-1.119,0l-2.882-3.128-3,3.138a.76.76,0,0,1-1.138-.044l-2.516-3.073-3.123,3.129a.762.762,0,0,1-1.3-.542v-48.463a.767.767,0,0,1,.478-.711.759.759,0,0,1,.834.18l3,3.138,2.882-3.128a.761.761,0,0,1,.559-.246h.007a.761.761,0,0,1,.563.255l2.764,3.118,3.115-3.147a.732.732,0,0,1,.562-.226.764.764,0,0,1,.548.255l2.745,3.1,2.861-3.105a.782.782,0,0,1,1.119,0l2.881,3.128,3-3.138a.76.76,0,0,1,1.139.044l2.517,3.074,3.122-3.13a.762.762,0,0,1,1.3.543v48.463a.765.765,0,0,1-.478.71.746.746,0,0,1-.284.056.759.759,0,0,1-.55-.236l-3-3.138-2.881,3.128a.761.761,0,0,1-.56.246h-.007a.764.764,0,0,1-.562-.257l-2.765-3.118-3.114,3.148a.738.738,0,0,1-.519.226Zm-3.276-5.256a.761.761,0,0,1,.563.256l2.764,3.118,3.115-3.147a.74.74,0,0,1,.562-.226.761.761,0,0,1,.548.256l2.745,3.1,2.861-3.1a.751.751,0,0,1,.552-.246h.007a.759.759,0,0,1,.55.235l2.245,2.351v-44.711l-2.416,2.42a.758.758,0,0,1-1.127-.056l-2.506-3.058-2.964,3.1a.756.756,0,0,1-.55.236H806.9a.758.758,0,0,1-.552-.246l-2.872-3.118-2.871,3.118a.726.726,0,0,1-.566.246.762.762,0,0,1-.562-.256l-2.765-3.118-3.114,3.148a.74.74,0,0,1-.562.226.763.763,0,0,1-.548-.256l-2.746-3.1-2.86,3.106a.759.759,0,0,1-.553.246h-.007a.756.756,0,0,1-.549-.236l-2.246-2.351v44.712l2.417-2.421a.759.759,0,0,1,1.127.056l2.5,3.059,2.965-3.1a.759.759,0,0,1,.55-.235h.006a.752.752,0,0,1,.553.246l2.871,3.117,2.872-3.117a.757.757,0,0,1,.559-.246Zm9.811-5.3v-.383a1.912,1.912,0,0,1-1.384-1.836.513.513,0,1,1,1.027,0,.879.879,0,0,0,.861.875l.023.192h0l0-.192a.875.875,0,0,0-.011-1.75,1.909,1.909,0,0,1-.512-3.744v-.32a.514.514,0,1,1,1.028,0v.32a1.913,1.913,0,0,1,1.384,1.836.513.513,0,1,1-1.027,0,.871.871,0,1,0-.871.876,1.909,1.909,0,0,1,.514,3.744v.383a.514.514,0,1,1-1.028,0Zm-6.593-1.43-1.3-1.8-1.283,1.8a.348.348,0,0,1-.288.174.3.3,0,0,1-.312-.308.438.438,0,0,1,.1-.25l1.391-1.9-1.233-1.643a.393.393,0,0,1-.1-.244.311.311,0,0,1,.313-.3.336.336,0,0,1,.287.167l1.143,1.585,1.117-1.585a.314.314,0,0,1,.282-.167.284.284,0,0,1,.293.288.392.392,0,0,1-.083.231l-1.226,1.681,1.4,1.887a.442.442,0,0,1,.1.25.313.313,0,0,1-.326.314A.349.349,0,0,1,803.179,1271.017Zm-4.3-.07-.39-.924h-2.235l-.39.931a.329.329,0,0,1-.306.238.308.308,0,0,1-.327-.308.458.458,0,0,1,.051-.193l1.7-3.825c.121-.283.281-.32.408-.32s.282.038.409.32l1.679,3.812a.472.472,0,0,1,.044.193.315.315,0,0,1-.326.321A.339.339,0,0,1,798.877,1270.947Zm-2.389-1.482h1.768l-.881-2.111Zm-3.256,1.366v-3.677h-1.188a.281.281,0,1,1,0-.558h3.008a.273.273,0,0,1,.313.282c0,.084-.039.276-.313.276h-1.187v3.677a.319.319,0,1,1-.633,0Zm15.085-10.086a.766.766,0,0,1,0-1.533h2.78a.766.766,0,0,1,0,1.533Zm-20.187,0a.766.766,0,0,1,0-1.533h12.983a.766.766,0,0,1,0,1.533Zm16.446-3.965a.766.766,0,0,1,0-1.533H811.1a.766.766,0,0,1,0,1.533Zm-16.446,0a.766.766,0,0,1,0-1.533h11.824a.766.766,0,0,1,0,1.533Zm18.093-3.965a.766.766,0,0,1,0-1.532H811.1a.766.766,0,0,1,0,1.532Zm-18.093,0a.766.766,0,0,1,0-1.532h9.856a.766.766,0,0,1,0,1.532Zm20.187-3.964a.766.766,0,0,1,0-1.533h2.78a.766.766,0,0,1,0,1.533Zm-20.187,0a.766.766,0,0,1,0-1.533h12.983a.766.766,0,0,1,0,1.533Zm18.093-3.965a.766.766,0,0,1,0-1.532H811.1a.766.766,0,0,1,0,1.532Zm-18.093,0a.766.766,0,0,1,0-1.532h15.328a.766.766,0,0,1,0,1.532Z" transform="translate(-782.005 -1233.007)" fill="#0ebce7"/>
</svg>
