<svg xmlns="http://www.w3.org/2000/svg" width="41.996" height="51.011" viewBox="0 0 41.996 51.011">
  <path id="icono_contabilidad" d="M1189.414,1283.006a3.429,3.429,0,0,1-3.408-3.442v-44.129a3.429,3.429,0,0,1,3.408-3.441h35.179a3.429,3.429,0,0,1,3.408,3.441v44.129a3.429,3.429,0,0,1-3.408,3.442Zm-1.613-47.57v44.129a1.623,1.623,0,0,0,1.613,1.629h35.179a1.623,1.623,0,0,0,1.613-1.629v-44.129a1.622,1.622,0,0,0-1.613-1.628h-35.179A1.622,1.622,0,0,0,1187.8,1235.435Zm21.468,43.187a.9.9,0,0,1-.9-.906v-7.984a.9.9,0,0,1,.9-.906h13.914a.9.9,0,0,1,.9.906v7.984a.9.9,0,0,1-.9.906Zm.9-1.812h12.118v-6.172h-12.118Zm-19.075,1.812a.9.9,0,0,1-.9-.906v-7.984a.9.9,0,0,1,.9-.906h13.913a.9.9,0,0,1,.9.906v7.984a.9.9,0,0,1-.9.906Zm.9-1.812h12.119v-6.172H1191.99Zm6.588-1.912-.529-.535-.529.535a.446.446,0,0,1-.634,0,.456.456,0,0,1,0-.641l.529-.534-.529-.535a.456.456,0,0,1,0-.641.446.446,0,0,1,.634,0l.529.534.529-.534a.447.447,0,0,1,.635,0,.456.456,0,0,1,0,.641l-.529.535.529.534a.456.456,0,0,1,0,.641.446.446,0,0,1-.635,0Zm16.451.057a.453.453,0,0,1,0-.906h2.394a.453.453,0,0,1,0,.906Zm0-1.557a.453.453,0,0,1,0-.906h2.394a.453.453,0,0,1,0,.906Zm-5.76-7.009a.9.9,0,0,1-.9-.906V1257.5a.9.9,0,0,1,.9-.906h13.914a.9.9,0,0,1,.9.906v7.984a.9.9,0,0,1-.9.906Zm.9-1.813h12.118v-6.171h-12.118Zm-19.075,1.813a.9.9,0,0,1-.9-.906V1257.5a.9.9,0,0,1,.9-.906h13.913a.9.9,0,0,1,.9.906v7.984a.9.9,0,0,1-.9.906Zm.9-1.813h12.119v-6.171H1191.99Zm5.61-1.877v-.755h-.747a.453.453,0,0,1,0-.906h.747v-.755a.449.449,0,1,1,.9,0v.755h.748a.453.453,0,0,1,0,.906h-.748v.755a.449.449,0,1,1-.9,0Zm17.429-.755a.453.453,0,0,1,0-.906h2.394a.453.453,0,0,1,0,.906Zm-23.936-7.788a.9.9,0,0,1-.9-.906v-16.084a.9.9,0,0,1,.9-.905h32.09a.9.9,0,0,1,.9.905v16.084a.9.9,0,0,1-.9.906Zm.9-1.813h30.295v-14.271H1191.99Zm23.189-5.374v-3.159a.449.449,0,1,1,.9,0v3.159a.449.449,0,1,1-.9,0Zm-4.189,0v-3.159a.449.449,0,1,1,.9,0v3.159a.449.449,0,1,1-.9,0Zm-4.189,0v-3.159a.449.449,0,1,1,.9,0v3.159a.449.449,0,1,1-.9,0Zm-4.189,0v-3.159a.449.449,0,1,1,.9,0v3.159a.449.449,0,1,1-.9,0Zm-4.189,0v-3.159a.449.449,0,1,1,.9,0v3.159a.449.449,0,1,1-.9,0Z" transform="translate(-1186.006 -1231.995)" fill="#0ebce7"/>
</svg>
