<svg xmlns="http://www.w3.org/2000/svg" width="50" height="49.998" viewBox="0 0 50 49.998">
  <path id="icono_factura_electronica" d="M398.878,1056H381.522a.771.771,0,0,1,0-1.543h2.916l2.752-5.366H367.771a.77.77,0,0,1-.77-.77v-29.283a2.845,2.845,0,0,1,2.841-2.844H377.4v-9.421a.771.771,0,0,1,.77-.77h20.707a.743.743,0,0,1,.148.014h0a.736.736,0,0,1,.187.067l.043.023a.741.741,0,0,1,.164.121l3.476,3.473,3.469,3.467a.739.739,0,0,1,.121.164c.009.014.016.029.024.044a.8.8,0,0,1,.067.187v0a.752.752,0,0,1,.014.149v2.48h7.557a2.845,2.845,0,0,1,2.84,2.844V1041.5a.781.781,0,0,1,.011.1v6.719a.77.77,0,0,1-.77.77H396.68l2.672,5.366h2.884a.771.771,0,0,1,0,1.543Zm-12.709-1.543h11.461l-2.672-5.366h-6.037Zm-17.628-6.908h46.918v-5.176H368.541Zm38.05-6.719h8.858v-21.793a1.3,1.3,0,0,0-1.3-1.3h-7.557Zm-27.652-23.867v23.867h26.113v-26.347h-4.084a2.866,2.866,0,0,1-2.862-2.865v-4.075H378.939Zm-10.4,2.074v21.793H377.4v-23.1h-7.556A1.3,1.3,0,0,0,368.541,1019.035Zm31.1-7.419a1.324,1.324,0,0,0,1.321,1.323h2.992l-2.155-2.153-2.158-2.157Zm-18.124,27.2a.771.771,0,0,1,0-1.543h10.473a.771.771,0,0,1,0,1.543Zm0-3.559a.771.771,0,0,1,0-1.543h17.354a.771.771,0,0,1,0,1.543Zm3.321-5.632v-1.183a3.807,3.807,0,0,1-3.08-3.733.719.719,0,1,1,1.437,0,2.365,2.365,0,0,0,2.332,2.362h.058a2.363,2.363,0,0,0-.029-4.726,3.8,3.8,0,0,1-.718-7.536v-1.044a.718.718,0,1,1,1.436,0v1.044a3.807,3.807,0,0,1,3.08,3.732.719.719,0,1,1-1.437,0,2.361,2.361,0,1,0-2.361,2.364,3.8,3.8,0,0,1,.718,7.536v1.183a.718.718,0,1,1-1.436,0Z" transform="translate(-367 -1005.999)" fill="#0ebce7"/>
</svg>
